<svg id="Слой_1" data-name="Слой 1" xmlns="http://www.w3.org/2000/svg" xmlns:xlink="http://www.w3.org/1999/xlink" viewBox="0 0 327 454"><defs><style>.cls-1{fill:url(#Безымянный_градиент_11);}.cls-2{fill:url(#Безымянный_градиент_37);}.cls-3{fill:url(#Новый_образец_градиентной_залив);}</style><linearGradient id="Безымянный_градиент_11" x1="2798.19" y1="10.8" x2="2817.26" y2="562.51" gradientTransform="matrix(-1, 0, 0, 1, 2914.13, 0)" gradientUnits="userSpaceOnUse"><stop offset="0.01" stop-color="#fcee21"/><stop offset="0.51" stop-color="#ed1e79"/><stop offset="1" stop-color="#1b1464"/></linearGradient><linearGradient id="Безымянный_градиент_37" x1="2710.46" y1="374.03" x2="2914.28" y2="374.03" gradientTransform="matrix(-1, 0, 0, 1, 2914.13, 0)" gradientUnits="userSpaceOnUse"><stop offset="0" stop-color="#1b1464"/><stop offset="1" stop-color="#ed1e79"/></linearGradient><linearGradient id="Новый_образец_градиентной_залив" x1="2611.57" y1="-10.66" x2="2921.74" y2="436.94" xlink:href="#Безымянный_градиент_11"/></defs><title>Монтажная область 4</title><path class="cls-1" d="M104.42,441.44c39.41,0,68.74-8.77,77.46-23.44a16.69,16.69,0,0,0,.08-17.6c-9.19-15.81-42-25.12-85.55-24.28a3.58,3.58,0,0,0,.07,7.16h.07c49-.94,73.32,10.58,79.22,20.72a9.46,9.46,0,0,1-.05,10.34c-6,10-30.28,21.24-79.14,19.82C56.19,433,31,426,27.45,415.05c-2.53-7.82,5.74-19.3,23.92-33.22A3.58,3.58,0,0,0,47,376.14C25.62,392.53,17,406,20.63,417.25c4.72,14.64,30.21,22.74,75.75,24.07Q100.46,441.44,104.42,441.44Z"/><path class="cls-2" d="M113,453.83c18.66,0,35.66-2.23,49.88-6.6,17.34-5.33,29.91-13.48,36.34-23.56,5.58-8.74,6-18.37,1.1-27.1-11.82-21.21-51.46-33.41-106-32.63a3.58,3.58,0,0,0,0,7.16h0c61.06-.88,91.52,14.39,99.64,29,3.58,6.41,3.28,13.25-.88,19.75C183.74,434.54,152.39,450.24,95,446h-.24c-37.47-.22-80.65-9.36-86.92-28.92-3.91-12.19,7.42-28.32,32.75-46.64h0c1.61-1.17,4.53-5.28,6.92-10.79,7.89-18.21,21.63-55.71,22.27-57.46.08-.2.33-.63,1.42-.74a7.55,7.55,0,0,1,6.37,2.91,3,3,0,0,1,0,3.44s0,.07,0,.1L51.72,359.47a3.58,3.58,0,0,0,6.41,3.2L83.9,311.13a10.21,10.21,0,0,0-.43-10.78A14.69,14.69,0,0,0,70.4,294.3a8.52,8.52,0,0,0-7.34,5.25l0,.1c-.14.39-14.18,38.77-22.13,57.13a29.91,29.91,0,0,1-4.67,7.92C7.82,385.27-4,403.62,1,419.25c7.89,24.64,55.31,33.65,93.58,33.89C100.83,453.6,107,453.83,113,453.83ZM36.45,364.54l-.11.08-.06,0Z"/><path class="cls-3" d="M73.09,281.64l.09-.22,1.38-2.87c30.93-64.7,51.36-107.45,75.23-141.34,24-34.08,51.4-58.74,94.57-85.15a4.16,4.16,0,0,1,.47-.24c.95-.4,1.42-.88,1.4-2.44a10.55,10.55,0,0,1,3.2-8.26l.26-.23,12.18-10,.18-.14L297.62,5.1c3.78-3.84,7.7-5.53,11.67-5,4.82.64,9.08,4.39,13,11.48,6.44,8.21,6.25,15.55-.57,21.82a3.08,3.08,0,0,1-.65.47l-35,20L266.16,67.39a3.83,3.83,0,0,1-.69.37c-2.9,1.15-6.39,2.14-10.37.78a4.11,4.11,0,0,1-.6-.28s-.81-.41-4.48,1.5C205.12,92.93,164.19,140.12,128.37,210l-23.6,52.93,0,.11L91.1,291l-.12.23c-2.39,4.1-5.58,5.54-8.49,5.54a9.34,9.34,0,0,1-4-.94A11.34,11.34,0,0,1,73.09,281.64Zm8.52,7.74c.4.2,1.63.8,3.11-1.66L98.25,260l23.62-53a.89.89,0,0,1,.08-.17c18-35.22,37.53-65,57.92-88.66,20.92-24.24,43.41-42.66,66.86-54.76,3.21-1.67,7.33-3.34,10.92-1.57,1.1.33,2.41.32,4.82-.59L282.2,47.85l.23-.14,34.75-19.86c2.62-2.49,4.53-5.55-.66-12.06a3.48,3.48,0,0,1-.34-.51c-2.7-4.9-5.47-7.77-7.82-8.08-1.67-.22-3.62.82-5.8,3.1a2.92,2.92,0,0,1-.5.43L276.39,29.22c.33,1.25.7,2.5,1.09,3.74.29.91.6,1.82.92,2.73.19.51.38,1,.58,1.54.56,1.44,1.16,2.89,1.75,4.37l.89,2.26.22.57.11.29c0,.09.08.19.13.33a3.48,3.48,0,0,1,.21.68l.18.47A22,22,0,0,1,278.63,43a28.89,28.89,0,0,1-3.15-3.9c-.18-.27-.35-.54-.52-.82A28,28,0,0,1,273,34.69c-.36-.76-.65-1.56-.94-2.36l-3.15,2.26c.17.69.34,1.37.54,2,.26.93.56,1.85.89,2.77.2.56.4,1.12.62,1.69.59,1.49,1.26,3,1.94,4.51l1,2.31c.18.4.34.76.55,1.2a4.88,4.88,0,0,1,.28.73,1.16,1.16,0,0,0,.21.46,1.26,1.26,0,0,0-.42-.29,3.39,3.39,0,0,1-.68-.42l-1.06-.8a25,25,0,0,1-2-1.74,26.71,26.71,0,0,1-3.38-4.1c-.17-.26-.34-.53-.5-.8a25.31,25.31,0,0,1-2-3.94c-.07-.15-.12-.31-.18-.47L254.38,46.3c-.63.65-1,1.19-1,3a9.16,9.16,0,0,1-5.5,9c-85,52-105.65,95.24-166.88,223.34l-1.31,2.75A4.15,4.15,0,0,0,81.61,289.38Z"/></svg>