<svg xmlns="http://www.w3.org/2000/svg" xmlns:xlink="http://www.w3.org/1999/xlink" viewBox="0 0 830.4 137.43"><defs><style>.cls-1{fill:url(#Безымянный_градиент_19);}.cls-2{fill:url(#Безымянный_градиент_19-2);}.cls-3{fill:url(#Безымянный_градиент_19-3);}.cls-4{fill:url(#Безымянный_градиент_30);}.cls-5{fill:url(#Безымянный_градиент_31);}.cls-6{fill:url(#Безымянный_градиент_19-4);}.cls-7{fill:url(#Безымянный_градиент_19-5);}.cls-8{fill:url(#Безымянный_градиент_19-6);}.cls-9{fill:url(#Безымянный_градиент_19-7);}</style><linearGradient id="Безымянный_градиент_19" x1="-9.85" y1="72.25" x2="846.17" y2="-44.07" gradientUnits="userSpaceOnUse"><stop offset="0" stop-color="#ff3062"/><stop offset="1" stop-color="#2f26f2"/></linearGradient><linearGradient id="Безымянный_градиент_19-2" x1="-15.92" y1="85.84" x2="849.26" y2="-11.32" xlink:href="#Безымянный_градиент_19"/><linearGradient id="Безымянный_градиент_19-3" x1="-12.39" y1="62.25" x2="861.49" y2="85.49" xlink:href="#Безымянный_градиент_19"/><linearGradient id="Безымянный_градиент_30" x1="-11.17" y1="87.23" x2="873.84" y2="36.11" gradientUnits="userSpaceOnUse"><stop offset="0" stop-color="#d22e81"/><stop offset="0.12" stop-color="#c72d89"/><stop offset="0.34" stop-color="#a92c9d"/><stop offset="0.62" stop-color="#792abf"/><stop offset="0.96" stop-color="#3726ed"/><stop offset="1" stop-color="#2f26f2"/></linearGradient><linearGradient id="Безымянный_градиент_31" x1="-33.16" y1="69.97" x2="868.4" y2="69.97" gradientUnits="userSpaceOnUse"><stop offset="0" stop-color="#ff3062"/><stop offset="0.18" stop-color="#df2e78"/><stop offset="0.57" stop-color="#8e2bb0"/><stop offset="1" stop-color="#2f26f2"/></linearGradient><linearGradient id="Безымянный_градиент_19-4" x1="-20.11" y1="68.72" x2="878.86" y2="68.72" xlink:href="#Безымянный_градиент_19"/><linearGradient id="Безымянный_градиент_19-5" x1="-21.72" y1="68.72" x2="866.66" y2="68.72" xlink:href="#Безымянный_градиент_19"/><linearGradient id="Безымянный_градиент_19-6" x1="-16.23" y1="68.72" x2="865.54" y2="68.72" xlink:href="#Безымянный_градиент_19"/><linearGradient id="Безымянный_градиент_19-7" x1="-24.05" y1="68.72" x2="859.83" y2="68.72" xlink:href="#Безымянный_градиент_19"/></defs><title>Ресурс 2000</title><g id="Слой_2" data-name="Слой 2"><g id="Слой_1-2" data-name="Слой 1"><path class="cls-1" d="M35.54,2H3.08A3,3,0,0,0,0,4.87v45.7a3,3,0,0,0,3.08,2.88,3,3,0,0,0,3.09-2.88V7.76H35.54c12.05,0,23.44,0,30.9,10.78,5,7,7.52,16,7.52,26.86,0,13.85-4.71,26-12.28,31.65-7.77,5.47-18.37,5.47-24.7,5.47H29.22a3,3,0,0,0-3.08,2.89v44.27h-20V72.56c0-5.41,1.36-6.66,7.26-6.66H35.54c12.3,0,16.87-6.09,16.87-22.48,0-5.27,0-21.3-16.87-21.3H29.22A3,3,0,0,0,26.14,25V47.52a3,3,0,0,0,3.08,2.89,2.85,2.85,0,0,0,2.94-2.89V27.89h3.38c7.7,0,10.7,4.35,10.7,15.53,0,15.59-4,16.72-10.7,16.72H13.43C4.14,60.14,0,64,0,72.56v60a3,3,0,0,0,3.08,2.89H29.22a2.85,2.85,0,0,0,2.94-2.89V88.42H37c6.14,0,18.93,0,28.59-6.85,9.12-6.92,14.56-20.44,14.56-36.17,0-12-2.88-22.16-8.56-30.08C62.37,2,48.12,2,35.54,2Z"/><path class="cls-2" d="M132.88,0c-29.62,0-44,22.16-44,67.76,0,24.75,3.63,42.09,11.43,54.57l0,.09a29.68,29.68,0,0,0,3.28,4.32,2.81,2.81,0,0,0,1.92,1,3.27,3.27,0,0,0,2.38-.67,2.93,2.93,0,0,0,1-2,2.78,2.78,0,0,0-.69-2.1,27.55,27.55,0,0,1-2.34-3.08,8,8,0,0,0-.48-.67C98.44,107.8,95,91,95,67.76c0-42.2,12-61.85,37.85-61.85,25.43,0,37.27,20.39,37.27,64.17,0,28.26-7.35,61.31-28.08,61.44h-.29c-13.24,0-15.24-7.79-16.7-13.48l-.33-1.15c-1.93-7.31-1.69-27.94-1.57-39,0-1.55,0-3,.08-4.29,0-1.11.07-2.14.07-3.08,0-14.93.31-29.57,2.55-35.57,2-5.35,4.28-6.09,6.43-6.09,3.6,0,5.5.9,7.28,6.21C142,42.33,142,60.25,142,67.9c0,.23-.07,23.79-1.57,32.66-.82,4.92-2,7.34-4.15,8.35a2.76,2.76,0,0,0-1.51,1.56,3.06,3.06,0,0,0,.1,2.39,3.15,3.15,0,0,0,4.11,1.33c5.13-2.43,6.72-7.76,7.6-12.64,1.49-8.1,1.46-26.61,1.45-32.69V66.67c0-9,0-25.69-2.61-33.45-2.52-7.32-6.32-10.3-13.11-10.3-5.56,0-9.68,3.41-12.25,10.15-2.42,6.35-2.9,19-2.9,37.42v7.36l0,1.24c-.15,13.31-.35,31.54,1.6,39.09l.15,1c1.21,4.95,4.41,18.11,22.6,18.25h.29c25.57,0,34.68-34.79,34.68-67.35C176.46,40,172,0,132.88,0Z"/><path class="cls-3" d="M251.58,69.31a114.82,114.82,0,0,0-18-4.66c-15.86-3.29-30.84-6.4-34.08-22.79a25.84,25.84,0,0,1,6.2-23.14c6.18-6.87,15.92-11,26.06-11,15.52,0,26.13,7.93,31.54,23.59l-14.43,6.22c-1.39-4.22-4-9.83-10.48-12.24a15.27,15.27,0,0,0-19,7c-3.9,7.34-1.4,15.53,6.19,20.38a3.38,3.38,0,0,0,4.41-.62,2.49,2.49,0,0,0,.54-1.94A3.16,3.16,0,0,0,229.13,48c-5-3.24-6.64-8.4-4.15-13.12a8.82,8.82,0,0,1,11-4.27c4.86,1.79,6.76,7.2,7.88,11.69a2.8,2.8,0,0,0,1.75,2,3.48,3.48,0,0,0,2.52,0l20.12-8.74A2.94,2.94,0,0,0,270,32.15C264.16,12.7,250.57,2,231.73,2c-11.91,0-23.44,4.86-30.82,13a31.45,31.45,0,0,0-7.59,28C197.26,63.17,215,66.77,232.2,70.27a113.74,113.74,0,0,1,17,4.48C259,78.42,265.13,87.11,265.55,98c.42,12.21-6.33,23.57-16.79,28.26-5,2.17-11.87,3.41-18.9,3.41-25.3,0-31.1-17.92-34.14-27.94L211.13,96c1.63,6,4.86,14,13.72,16.38,5.25,1.39,10.3.61,14.2-2.19a15.74,15.74,0,0,0,6.68-13c0-9.86-6.53-14.06-12.23-16.62a3.18,3.18,0,0,0-4.09,1.31,2.87,2.87,0,0,0-.11,2.31,2.71,2.71,0,0,0,1.5,1.54c4.55,2,8.76,4.83,8.76,11.46a9.78,9.78,0,0,1-4.1,8.34,10.43,10.43,0,0,1-8.92,1.25c-6.41-1.76-8.38-8-10.12-15.39a2.62,2.62,0,0,0-1.61-2,3.52,3.52,0,0,0-2.5-.13l-21.53,7.94a2.88,2.88,0,0,0-1.9,3.39l.14.53h0c3.51,12,10,34.27,40.84,34.27,3.86,0,13.69-.38,21.6-3.89,12.7-5.65,20.84-19.21,20.26-33.72C271.28,84.44,263.75,73.77,251.58,69.31Z"/><path class="cls-4" d="M354.2,2H285.84a3,3,0,0,0-3.09,2.88V28.45a3,3,0,0,0,3.09,2.88h36.05c4.87,0,7.82.57,7.82,8.38v90h-20V44.21a3.09,3.09,0,0,0-6.17,0v88.35a3,3,0,0,0,3.08,2.89H332.8a3,3,0,0,0,3.09-2.89V39.71c0-12.68-8-14.15-14-14.15h-33V7.76h62.19V26.09h-3.66a2.89,2.89,0,1,0,0,5.77h6.75A3,3,0,0,0,357.28,29V4.87A3,3,0,0,0,354.2,2Z"/><path class="cls-5" d="M416,59.47H376.93a3,3,0,0,0-3.09,2.89V77.59a2.87,2.87,0,0,0,3.09,2.75h19.53a2.86,2.86,0,0,0,3.08-2.75,3,3,0,0,0-3.08-2.88H380V65.24h32.9V77.59a3.09,3.09,0,0,0,6.17,0V62.36A3,3,0,0,0,416,59.47Z"/><path class="cls-6" d="M505.5,65.78c8.24-4.93,12.24-14,12.24-27.79,0-11.2-2.82-19.51-8.88-26.16C500.38,2,490.62,2,474.44,2H439a3,3,0,0,0-3.08,2.88v20.4A3,3,0,0,0,439,28.15h35.47c7.59,0,11.28,4.39,11.28,13.41,0,6.3-.86,11.95-11.28,11.95H461.09c-4.1,0-8.26,2.63-8.26,7.66V73.48c0,4.22,3.63,7.52,8.26,7.52h13.07c7.7,0,9.53.6,11.48,3.73A18.38,18.38,0,0,1,488,94c0,12.23-4.33,14.46-12.86,14.46H455.92a3,3,0,0,0-3.09,2.89,2.87,2.87,0,0,0,3.09,2.75h19.24c13.34,0,19-6,19-20.1a24,24,0,0,0-3.09-12c-3.7-6.14-9.11-6.6-16.94-6.6H461.09A2,2,0,0,1,459,73.48V61.17a1.85,1.85,0,0,1,2.09-1.89h13.35c17.45,0,17.45-13.34,17.45-17.72,0-12.1-6.36-19-17.45-19H442.06V7.76h32.38c15.25,0,22.9,0,29.64,7.77,3.22,3.64,7.49,9.93,7.49,22.46,0,19.45-9,23.15-14.33,25.36a2.81,2.81,0,0,0,.32,5.31c4.85,1.71,17.75,6.26,17.75,29.46,0,12.59-5.08,20.23-9.34,24.42-6.89,7.14-20.43,7.14-26.93,7.14h-37V40.77a3.09,3.09,0,0,0-6.17,0v91.79a3,3,0,0,0,3.08,2.89H479c7.39,0,22.76,0,31.38-8.89,5-5.07,11.06-14.11,11.06-28.44C521.48,78.69,513,69.82,505.5,65.78Z"/><path class="cls-7" d="M618,83.69,597.22,4.21A3.07,3.07,0,0,0,594.29,2H566.58a3.19,3.19,0,0,0-3.07,2.23L542.83,83.69l-12.5,48.24a3,3,0,0,0,.67,2.4,3.35,3.35,0,0,0,2.4,1.12h27a2.3,2.3,0,0,0,1.29-.62,2.51,2.51,0,0,0,.87-1,.39.39,0,0,0,.06-.21c0-.06,0-.14.06-.23a2,2,0,0,0,.08-.36l7.61-38.29c1.09-5.75,2.55-7.54,9.56-7.54a.71.71,0,0,0,.21,0l.08,0,.08,0a.5.5,0,0,0,.21,0h11.34a2.48,2.48,0,0,0,1.07-.31A2.56,2.56,0,0,0,594,86a2.48,2.48,0,0,1,.18-.25,1.58,1.58,0,0,0,.45-.91V83.72l-11.2-55.47A2.81,2.81,0,0,0,580.51,26a3,3,0,0,0-3.08,2.26L569.25,69a2.4,2.4,0,0,0,.35,1.9,3.3,3.3,0,0,0,2.2,1.34A3,3,0,0,0,575.4,70l5.11-25.63,7.43,37.08h-8c-10.93,0-14.13,4.88-15.57,12.19l-7.1,36H537.35L549,85.13,569,7.76H591.9L612.05,85l11.61,44.68H603.9l-3.23-16L599,104.55a3.11,3.11,0,0,0-3.37-2.42H582.37a2.89,2.89,0,1,0,0,5.76h10.94L598.39,133a1.59,1.59,0,0,0,.2.5c0,.07.08.14.09.09a.5.5,0,0,0,.06.24,3.12,3.12,0,0,0,.67.92.51.51,0,0,0,.13.09,3,3,0,0,1,.28.17,1.79,1.79,0,0,0,.94.41h26.85a3.31,3.31,0,0,0,2.4-1.12,4.37,4.37,0,0,0,.54-2.3.49.49,0,0,0,0-.12Z"/><path class="cls-8" d="M709.07,81.76a2.57,2.57,0,0,0,.28-.19c9.11-6.92,14.56-20.44,14.56-36.17,0-11.95-2.89-22-8.57-29.95C706.06,2,691.23,2,679.32,2H646.86a3,3,0,0,0-3.09,2.88V50.7a3.09,3.09,0,0,0,6.17,0V7.76h29.38c12,0,23.43,0,30.9,10.78,5,7,7.52,16,7.52,26.86,0,13.85-4.71,26-12.28,31.65-.2.13-.4.29-.59.44a7.46,7.46,0,0,1-1.14.75,2.89,2.89,0,0,0-1.36,2.13,2.74,2.74,0,0,0,.17,1.23l17.14,48.08H698.22L685.13,84.93a2.69,2.69,0,0,0-.88-1.48,3,3,0,0,0-2.06-.93H673a3,3,0,0,0-3.09,2.89v44.27h-20V72.56c0-5.41,1.36-6.66,7.26-6.66h22.12c12.3,0,16.87-6.09,16.87-22.48,0-5.27,0-21.3-16.87-21.3H673A3,3,0,0,0,669.91,25V47.52A3,3,0,0,0,673,50.41a2.85,2.85,0,0,0,2.94-2.89V27.89h3.38c7.7,0,10.7,4.35,10.7,15.53,0,15.59-4,16.72-10.7,16.72H657.2c-9.28,0-13.43,3.83-13.43,12.42v60a3,3,0,0,0,3.09,2.89H673a2.85,2.85,0,0,0,2.94-2.89V88.42h3.86l13.11,44.93a2.94,2.94,0,0,0,2.92,2.1H724a2.68,2.68,0,0,0,2.43-1.16,2.71,2.71,0,0,0,.48-2.56Z"/><path class="cls-9" d="M809.8,10.56C798.87,2.6,787.19,2,771.88,2H747A3,3,0,0,0,744,4.87V98.92c0,12.67,8.07,14.14,14.14,14.14h22.84c11.56,0,16.08-5.65,17.85-10.4,3.38-9.76,3.47-32.92,3.47-33.15,0-38.85-6.58-45.4-21.32-45.4h-7.76a3.09,3.09,0,0,0-3.08,3V94.68a3,3,0,0,0,3.08,2.88,2.85,2.85,0,0,0,2.94-2.88V30h5c4.16,0,7.75,0,10.43,4.74,3.1,5.48,4.55,16.53,4.55,34.76,0,8.49-.66,24.64-3.12,31.35-2.16,5.7-7.56,6.43-12,6.43H758.09c-5,0-8-.56-8-8.37V7.76h21.76c14.47,0,24.67.51,34.18,7.45,15.14,10.94,18.32,34.27,18.32,51.92,0,26.27-5.92,44.3-18.06,55.11-3.36,2.78-11,7.44-24.53,7.44H747a2.89,2.89,0,1,0,0,5.77h34.75c14.81,0,23.74-4.89,28.62-9,13.45-11.88,20-31.28,20-59.32C830.4,39.88,823.28,20.32,809.8,10.56Z"/></g></g></svg>